<svg width="40" height="40" viewBox="0 0 40 40" fill="none" xmlns="http://www.w3.org/2000/svg">
<circle cx="20" cy="20" r="20" fill="#2D2D30"/>
<g clip-path="url(#clip0)">
<path d="M20.3025 22.4558C20.3025 20.9158 19.57 19.7775 18.0567 19.3508C19.1608 18.825 19.7367 18.0283 19.7367 16.7892C19.7367 14.3458 17.91 13.75 15.8025 13.75H10V26.0175H15.965C18.2017 26.0175 20.3025 24.9483 20.3025 22.4558ZM12.705 15.8442H15.2433C16.2192 15.8442 17.0975 16.1175 17.0975 17.2458C17.0975 18.2875 16.4142 18.7067 15.4475 18.7067H12.705V15.8442ZM12.7042 23.9342V20.5558H15.6525C16.8433 20.5558 17.5967 21.0508 17.5967 22.3075C17.5967 23.5467 16.6975 23.9342 15.5967 23.9342H12.7042Z" fill="white"/>
<path d="M25.6635 26.25C27.7918 26.25 29.1702 25.2942 29.8335 23.2625H27.6735C27.441 24.0208 26.4827 24.4217 25.7393 24.4217C24.3052 24.4217 23.5518 23.5842 23.5518 22.1608H29.9793C30.1827 19.3125 28.596 16.885 25.6627 16.885C22.9468 16.885 21.1035 18.92 21.1035 21.5858C21.1035 24.3525 22.8502 26.25 25.6635 26.25ZM25.5868 18.7283C26.816 18.7283 27.4343 19.4483 27.5377 20.6258H23.5552C23.636 19.4583 24.4135 18.7283 25.5868 18.7283Z" fill="white"/>
<path d="M23.0557 14.394H28.0457V15.6024H23.0557V14.394Z" fill="white"/>
</g>
<defs>
<clipPath id="clip0">
<rect width="20" height="20" fill="white" transform="translate(10 10)"/>
</clipPath>
</defs>
</svg>
