<svg width="40" height="40" viewBox="0 0 40 40" fill="none" xmlns="http://www.w3.org/2000/svg">
<circle cx="20" cy="20" r="20" fill="#2D2D30"/>
<path d="M20 30C25.5142 30 30 25.5133 30 20C30 14.4867 25.5133 10 20 10C14.4867 10 10 14.4858 10 20C10 25.5142 14.4858 30 20 30ZM20 11.25C24.8233 11.25 28.75 15.175 28.75 20C28.75 24.8233 24.8233 28.75 20 28.75C15.175 28.75 11.25 24.8233 11.25 20C11.25 15.175 15.175 11.25 20 11.25Z" fill="white"/>
<path d="M24.7853 14.2258C23.4869 13.1475 21.8194 12.5 20.0003 12.5C19.4753 12.5 18.9628 12.555 18.4678 12.6575C19.3778 13.9475 20.2044 15.29 20.9319 16.6817C22.3078 16.04 23.6028 15.2125 24.7853 14.2258Z" fill="white"/>
<path d="M22.3883 19.8768C24.0483 19.5352 25.7758 19.5035 27.4883 19.7877C27.4383 18.0002 26.7658 16.3702 25.6758 15.1077C24.3892 16.1918 22.9742 17.0902 21.4717 17.7927C21.8 18.4777 22.105 19.1718 22.3883 19.8768Z" fill="white"/>
<path d="M19.7649 17.1543C19.0132 15.7285 18.1624 14.3535 17.2124 13.041C14.9607 13.9435 13.2541 15.9035 12.6982 18.3093C15.1257 18.4127 17.5282 18.0085 19.7649 17.1543Z" fill="white"/>
<path d="M21.17 20.1875C20.9092 19.545 20.6267 18.9125 20.325 18.2866C18.16 19.13 15.8475 19.59 13.4958 19.59C13.1725 19.59 12.8475 19.57 12.5225 19.5525C12.5142 19.7008 12.5 19.8491 12.5 20C12.5 21.8416 13.1667 23.5266 14.2675 24.8316C16.0683 22.595 18.49 20.9925 21.17 20.1875Z" fill="white"/>
<path d="M22.8467 21.0592C23.4425 22.7225 23.91 24.4317 24.2533 26.1734C25.9433 25.0075 27.1233 23.1659 27.4192 21.0384C25.8867 20.7675 24.3375 20.7792 22.8467 21.0592Z" fill="white"/>
<path d="M15.1543 25.7199C16.4626 26.829 18.151 27.4999 20.0001 27.4999C21.1101 27.4999 22.161 27.2524 23.1085 26.819C22.7651 24.9515 22.2651 23.124 21.6193 21.3499C19.0993 22.0857 16.8235 23.5982 15.1543 25.7199Z" fill="white"/>
</svg>
