<svg width="40" height="40" viewBox="0 0 40 40" fill="none" xmlns="http://www.w3.org/2000/svg">
<circle cx="20" cy="20" r="20" fill="#2D2D30"/>
<g clip-path="url(#clip0)">
<path d="M20.0037 14.865C17.1679 14.865 14.8721 17.1633 14.8721 19.9967C14.8721 22.8325 17.1704 25.1283 20.0037 25.1283C22.8396 25.1283 25.1354 22.83 25.1354 19.9967C25.1354 17.1608 22.8371 14.865 20.0037 14.865ZM20.0037 23.3275C18.1629 23.3275 16.6729 21.8367 16.6729 19.9967C16.6729 18.1567 18.1637 16.6658 20.0037 16.6658C21.8437 16.6658 23.3346 18.1567 23.3346 19.9967C23.3354 21.8367 21.8446 23.3275 20.0037 23.3275Z" fill="white"/>
<path d="M24.1225 10.0633C22.2825 9.97748 17.725 9.98164 15.8834 10.0633C14.265 10.1391 12.8375 10.53 11.6867 11.6808C9.76338 13.6041 10.0092 16.1958 10.0092 19.9966C10.0092 23.8866 9.79255 26.4183 11.6867 28.3125C13.6175 30.2425 16.2467 29.99 20.0025 29.99C23.8559 29.99 25.1859 29.9925 26.5484 29.465C28.4009 28.7458 29.7992 27.09 29.9359 24.1158C30.0225 22.275 30.0175 17.7183 29.9359 15.8766C29.7709 12.3658 27.8867 10.2366 24.1225 10.0633ZM27.035 27.04C25.7742 28.3008 24.025 28.1883 19.9784 28.1883C15.8117 28.1883 14.1409 28.25 12.9217 27.0275C11.5175 25.63 11.7717 23.3858 11.7717 19.9833C11.7717 15.3791 11.2992 12.0633 15.92 11.8266C16.9817 11.7891 17.2942 11.7766 19.9667 11.7766L20.0042 11.8016C24.445 11.8016 27.9292 11.3366 28.1384 15.9566C28.1859 17.0108 28.1967 17.3275 28.1967 19.9958C28.1959 24.1141 28.2742 25.795 27.035 27.04Z" fill="white"/>
<path d="M25.3378 15.862C26.0001 15.862 26.537 15.3251 26.537 14.6628C26.537 14.0005 26.0001 13.4636 25.3378 13.4636C24.6756 13.4636 24.1387 14.0005 24.1387 14.6628C24.1387 15.3251 24.6756 15.862 25.3378 15.862Z" fill="white"/>
</g>
<defs>
<clipPath id="clip0">
<rect width="20" height="20" fill="white" transform="translate(10 10)"/>
</clipPath>
</defs>
</svg>
