<svg width="40" height="40" viewBox="0 0 40 40" fill="none" xmlns="http://www.w3.org/2000/svg">
<circle cx="20" cy="20" r="20" fill="#2D2D30"/>
<g clip-path="url(#clip0)">
<path d="M26.5958 20.8567C26.2725 20.4484 26.365 20.2667 26.5958 19.9017C26.6 19.8976 29.2692 16.2092 29.5442 14.9584L29.5458 14.9576C29.6825 14.5017 29.5458 14.1667 28.885 14.1667H26.6983C26.1417 14.1667 25.885 14.4542 25.7475 14.7759C25.7475 14.7759 24.6342 17.4409 23.0592 19.1684C22.5508 19.6676 22.3158 19.8276 22.0383 19.8276C21.9017 19.8276 21.6892 19.6676 21.6892 19.2117V14.9576C21.6892 14.4109 21.5333 14.1667 21.0725 14.1667H17.6342C17.285 14.1667 17.0775 14.4217 17.0775 14.6592C17.0775 15.1776 17.865 15.2967 17.9467 16.7551V19.9192C17.9467 20.6126 17.8208 20.7401 17.5417 20.7401C16.7983 20.7401 14.9942 18.0642 13.925 15.0017C13.7092 14.4076 13.4983 14.1676 12.9375 14.1676H10.75C10.1258 14.1676 10 14.4551 10 14.7767C10 15.3451 10.7433 18.1709 13.4567 21.9042C15.265 24.4526 17.8117 25.8334 20.1283 25.8334C21.5208 25.8334 21.6908 25.5267 21.6908 24.9992C21.6908 22.5642 21.565 22.3342 22.2625 22.3342C22.5858 22.3342 23.1425 22.4942 24.4425 23.7234C25.9283 25.1809 26.1725 25.8334 27.0042 25.8334H29.1908C29.8142 25.8334 30.13 25.5267 29.9483 24.9217C29.5325 23.6492 26.7225 21.0317 26.5958 20.8567Z" fill="white"/>
</g>
<defs>
<clipPath id="clip0">
<rect width="20" height="20" fill="white" transform="translate(10 10)"/>
</clipPath>
</defs>
</svg>
